<?xml version="1.0" encoding="utf-8"?>
<!-- Generator: Adobe Illustrator 28.1.0, SVG Export Plug-In . SVG Version: 6.00 Build 0)  -->
<svg version="1.1" id="tv" xmlns="http://www.w3.org/2000/svg" xmlns:xlink="http://www.w3.org/1999/xlink" x="0px" y="0px"
	 viewBox="0 0 2560 1440" style="enable-background:new 0 0 2560 1440;" xml:space="preserve">
<style type="text/css">
	.st0{fill:#DBDAD5;}
	.st1{fill:#746E70;}
	.st2{fill:#F2EDE9;}
	.st3{fill:#E5E2E1;}
	.st4{fill:#C8CDD0;}
	.st5{fill:url(#yellow_00000098213978155763612480000002151535674974155667_);}
	.st6{fill:url(#green_00000089553664448505995570000010722174881413037213_);}
	.st7{fill:url(#red_00000085249951892366382160000004630309448553425040_);}
</style>
<g>
	<path class="st0" d="M1626.067,406H937.61c-12.958,0-23.485,10.066-23.564,22.532l-3.677,580.516
		c-0.08,12.574,10.494,22.808,23.564,22.808h692.134c13.014,0,23.565-10.15,23.565-22.67V428.67
		C1649.631,416.15,1639.081,406,1626.067,406z M1566.565,877.474c0,10.55-8.906,19.132-19.853,19.132h-537.711
		c-5.329,0-10.331-2.007-14.087-5.65c-3.755-3.644-5.803-8.479-5.767-13.614l2.696-376.974c0.075-10.477,8.981-19.001,19.853-19.001
		h535.016c10.947,0,19.853,8.583,19.853,19.132V877.474z"/>
	<path class="st1" d="M976.401,1031.856c2.317,3.793,4.164,9.471,9.747,9.134c-0.001,0,582.498,0,582.498,0
		c5.292,0.42,8.021-5.783,10.578-9.134H976.401z"/>
	<path class="st2" d="M925.602,413.056h709.023C1615.333,405.024,943.382,405.21,925.602,413.056z"/>
	<path class="st3" d="M1632.863,1022.958H923.84C943.132,1030.99,1615.084,1030.804,1632.863,1022.958z"/>
	<path class="st4" d="M1012.608,466.594h533.226c14.44,0,26.919,8.205,32.682,20.021c-1.834-14.081-11.477-24.823-23.103-24.823
		h-553.935c-12.897,0-23.356,13.215-23.419,29.547C982.537,477.054,996.36,466.594,1012.608,466.594z"/>
	<path class="st4" d="M1545.042,915.658c0,0-535.912,0-535.912,0c-14.522,0.193-28.351-8.942-33.554-21.907
		c0.919,15.334,11.016,27.416,23.347,27.416h553.935c10.671,0,19.669-9.051,22.495-21.425
		C1568.922,909.308,1557.742,915.658,1545.042,915.658z"/>
	<path d="M1580.663,487.928c-6.32-12.96-19.992-21.334-34.829-21.334h-533.226c-20.593-0.226-38.594,16.866-38.456,36.743
		c0,0-2.687,375.069-2.687,375.069c-0.034,4.801,0.873,9.479,2.697,13.904c5.602,13.861,20.249,23.538,35.76,23.349
		c0,0,535.912,0,535.912,0c13.087,0,25.163-6.341,32.303-16.96c4.026-5.987,6.153-12.916,6.153-20.038V503.591
		C1584.291,498.133,1583.07,492.863,1580.663,487.928z M991.187,878.537c1.86-8.037-0.225-374.167,4.074-381.713
		c2.911-6.845,9.719-11.256,17.347-11.256c0,0,533.226,0,533.226,0c6.823,0,13.113,3.585,16.42,9.358
		c1.514,2.643,2.315,5.64,2.315,8.666v375.069c0.135,9.695-8.642,18.194-18.735,18.024c0,0-535.912,0-535.912,0
		C999.818,896.881,990.907,888.284,991.187,878.537z"/>
	
		<radialGradient id="yellow_00000078010671750211928450000003456869492654834570_" cx="1282.0321" cy="967.0648" r="16.7081" gradientTransform="matrix(1.0281 0 0 0.9891 -36.5398 11.3669)" gradientUnits="userSpaceOnUse">
		<stop  offset="0" style="stop-color:#BC8200"/>
		<stop  offset="1" style="stop-color:#513911"/>
	</radialGradient>
	
		<ellipse id="yellow" style="fill:url(#yellow_00000078010671750211928450000003456869492654834570_);" cx="1281.527" cy="967.872" rx="17.178" ry="16.526"/>
	
		<radialGradient id="green_00000062908018785762406550000018429347862275886756_" cx="1189.2852" cy="967.0648" r="16.7081" gradientTransform="matrix(1.0281 0 0 0.9891 -36.5398 11.3669)" gradientUnits="userSpaceOnUse">
		<stop  offset="0" style="stop-color:#0E5B07"/>
		<stop  offset="1" style="stop-color:#0D2F09"/>
	</radialGradient>
	
		<ellipse id="green" style="fill:url(#green_00000062908018785762406550000018429347862275886756_);" cx="1186.174" cy="967.872" rx="17.178" ry="16.526"/>
	
		<radialGradient id="red_00000145780811454112293630000012109558123167428999_" cx="1374.7789" cy="967.0648" r="16.7081" gradientTransform="matrix(1.0281 0 0 0.9891 -36.5398 11.3669)" gradientUnits="userSpaceOnUse">
		<stop  offset="0" style="stop-color:#910707"/>
		<stop  offset="1" style="stop-color:#461718"/>
	</radialGradient>
	
		<ellipse id="red" style="fill:url(#red_00000145780811454112293630000012109558123167428999_);" cx="1376.881" cy="967.872" rx="17.178" ry="16.526"/>
</g>
</svg>
